<mxfile host="app.diagrams.net" modified="2022-04-04T22:31:39.335Z" agent="5.0 (Windows NT 10.0; Win64; x64) AppleWebKit/537.36 (KHTML, like Gecko) Chrome/99.0.4844.84 Safari/537.36" etag="x3ydDLEUvAqHxqOafoZN" version="17.3.0" type="github">
  <diagram id="McEwJPsEljkYm6XtJazi" name="Tenis">
    <mxGraphModel dx="2557" dy="965" grid="1" gridSize="10" guides="1" tooltips="1" connect="1" arrows="1" fold="1" page="1" pageScale="1" pageWidth="827" pageHeight="1169" math="0" shadow="0">
      <root>
        <mxCell id="0" />
        <mxCell id="1" parent="0" />
        <mxCell id="6nNHvLZK3ngZgTr0ydqF-15" style="edgeStyle=none;rounded=0;orthogonalLoop=1;jettySize=auto;html=1;exitX=0;exitY=0.25;exitDx=0;exitDy=0;entryX=1;entryY=0.5;entryDx=0;entryDy=0;endArrow=none;endFill=0;" parent="1" source="6nNHvLZK3ngZgTr0ydqF-1" target="6nNHvLZK3ngZgTr0ydqF-14" edge="1">
          <mxGeometry relative="1" as="geometry" />
        </mxCell>
        <mxCell id="6nNHvLZK3ngZgTr0ydqF-17" style="edgeStyle=none;rounded=0;orthogonalLoop=1;jettySize=auto;html=1;exitX=0;exitY=0.75;exitDx=0;exitDy=0;entryX=1;entryY=0.5;entryDx=0;entryDy=0;endArrow=none;endFill=0;" parent="1" source="6nNHvLZK3ngZgTr0ydqF-1" target="6nNHvLZK3ngZgTr0ydqF-16" edge="1">
          <mxGeometry relative="1" as="geometry" />
        </mxCell>
        <mxCell id="6nNHvLZK3ngZgTr0ydqF-1" value="Temporada" style="whiteSpace=wrap;html=1;align=center;" parent="1" vertex="1">
          <mxGeometry x="-20" y="80" width="120" height="80" as="geometry" />
        </mxCell>
        <mxCell id="6nNHvLZK3ngZgTr0ydqF-21" style="edgeStyle=none;rounded=0;orthogonalLoop=1;jettySize=auto;html=1;exitX=0.5;exitY=1;exitDx=0;exitDy=0;entryX=0.5;entryY=0;entryDx=0;entryDy=0;endArrow=classic;endFill=1;" parent="1" source="6nNHvLZK3ngZgTr0ydqF-2" target="6nNHvLZK3ngZgTr0ydqF-19" edge="1">
          <mxGeometry relative="1" as="geometry" />
        </mxCell>
        <mxCell id="6nNHvLZK3ngZgTr0ydqF-22" style="edgeStyle=none;rounded=0;orthogonalLoop=1;jettySize=auto;html=1;exitX=0.5;exitY=1;exitDx=0;exitDy=0;entryX=0.5;entryY=0;entryDx=0;entryDy=0;endArrow=classic;endFill=1;" parent="1" source="6nNHvLZK3ngZgTr0ydqF-2" target="6nNHvLZK3ngZgTr0ydqF-20" edge="1">
          <mxGeometry relative="1" as="geometry" />
        </mxCell>
        <mxCell id="6nNHvLZK3ngZgTr0ydqF-23" style="edgeStyle=none;rounded=0;orthogonalLoop=1;jettySize=auto;html=1;exitX=0.5;exitY=1;exitDx=0;exitDy=0;entryX=0.5;entryY=0;entryDx=0;entryDy=0;endArrow=classic;endFill=1;" parent="1" source="6nNHvLZK3ngZgTr0ydqF-2" target="6nNHvLZK3ngZgTr0ydqF-18" edge="1">
          <mxGeometry relative="1" as="geometry" />
        </mxCell>
        <mxCell id="6nNHvLZK3ngZgTr0ydqF-2" value="Torneio" style="whiteSpace=wrap;html=1;align=center;" parent="1" vertex="1">
          <mxGeometry x="1080" y="80" width="120" height="80" as="geometry" />
        </mxCell>
        <mxCell id="6nNHvLZK3ngZgTr0ydqF-14" value="Nome" style="ellipse;whiteSpace=wrap;html=1;align=center;fontStyle=4;" parent="1" vertex="1">
          <mxGeometry x="-170" y="70" width="100" height="40" as="geometry" />
        </mxCell>
        <mxCell id="6nNHvLZK3ngZgTr0ydqF-16" value="Ano" style="ellipse;whiteSpace=wrap;html=1;align=center;fontStyle=4;" parent="1" vertex="1">
          <mxGeometry x="-170" y="130" width="100" height="40" as="geometry" />
        </mxCell>
        <mxCell id="6nNHvLZK3ngZgTr0ydqF-18" value="Grand Slam" style="whiteSpace=wrap;html=1;align=center;" parent="1" vertex="1">
          <mxGeometry x="960" y="240" width="100" height="40" as="geometry" />
        </mxCell>
        <mxCell id="6nNHvLZK3ngZgTr0ydqF-19" value="Masters 1000" style="whiteSpace=wrap;html=1;align=center;" parent="1" vertex="1">
          <mxGeometry x="1090" y="240" width="100" height="40" as="geometry" />
        </mxCell>
        <mxCell id="6nNHvLZK3ngZgTr0ydqF-20" value="ATP 500" style="whiteSpace=wrap;html=1;align=center;" parent="1" vertex="1">
          <mxGeometry x="1220" y="240" width="100" height="40" as="geometry" />
        </mxCell>
        <mxCell id="6nNHvLZK3ngZgTr0ydqF-41" style="edgeStyle=none;rounded=0;orthogonalLoop=1;jettySize=auto;html=1;exitX=1;exitY=0.5;exitDx=0;exitDy=0;entryX=0;entryY=0.5;entryDx=0;entryDy=0;endArrow=none;endFill=0;strokeWidth=1;" parent="1" source="u8ekynMKd1rAH-vK32Hy-15" target="6nNHvLZK3ngZgTr0ydqF-2" edge="1">
          <mxGeometry relative="1" as="geometry" />
        </mxCell>
        <mxCell id="6nNHvLZK3ngZgTr0ydqF-43" value="(1,1)" style="edgeLabel;html=1;align=center;verticalAlign=bottom;resizable=0;points=[];" parent="6nNHvLZK3ngZgTr0ydqF-41" vertex="1" connectable="0">
          <mxGeometry x="0.7175" y="3" relative="1" as="geometry">
            <mxPoint as="offset" />
          </mxGeometry>
        </mxCell>
        <mxCell id="u8ekynMKd1rAH-vK32Hy-2" style="edgeStyle=none;rounded=0;orthogonalLoop=1;jettySize=auto;html=1;exitX=0;exitY=0.5;exitDx=0;exitDy=0;entryX=1;entryY=0.5;entryDx=0;entryDy=0;endArrow=none;endFill=0;strokeWidth=3;shape=link;" edge="1" parent="1" source="u8ekynMKd1rAH-vK32Hy-15" target="u8ekynMKd1rAH-vK32Hy-1">
          <mxGeometry relative="1" as="geometry" />
        </mxCell>
        <mxCell id="u8ekynMKd1rAH-vK32Hy-3" value="(0,n)" style="edgeLabel;html=1;align=center;verticalAlign=bottom;resizable=0;points=[];" vertex="1" connectable="0" parent="u8ekynMKd1rAH-vK32Hy-2">
          <mxGeometry x="0.7647" y="-1" relative="1" as="geometry">
            <mxPoint as="offset" />
          </mxGeometry>
        </mxCell>
        <mxCell id="u8ekynMKd1rAH-vK32Hy-23" style="edgeStyle=none;rounded=0;orthogonalLoop=1;jettySize=auto;html=1;exitX=0;exitY=0.25;exitDx=0;exitDy=0;entryX=1;entryY=0.5;entryDx=0;entryDy=0;endArrow=none;endFill=0;strokeWidth=1;" edge="1" parent="1" source="6nNHvLZK3ngZgTr0ydqF-45" target="u8ekynMKd1rAH-vK32Hy-21">
          <mxGeometry relative="1" as="geometry" />
        </mxCell>
        <mxCell id="u8ekynMKd1rAH-vK32Hy-24" style="edgeStyle=none;rounded=0;orthogonalLoop=1;jettySize=auto;html=1;exitX=0;exitY=0.75;exitDx=0;exitDy=0;entryX=1;entryY=0.5;entryDx=0;entryDy=0;endArrow=none;endFill=0;strokeWidth=1;" edge="1" parent="1" source="6nNHvLZK3ngZgTr0ydqF-45" target="u8ekynMKd1rAH-vK32Hy-22">
          <mxGeometry relative="1" as="geometry" />
        </mxCell>
        <mxCell id="6nNHvLZK3ngZgTr0ydqF-45" value="Jogador" style="whiteSpace=wrap;html=1;align=center;" parent="1" vertex="1">
          <mxGeometry x="80" y="800" width="120" height="80" as="geometry" />
        </mxCell>
        <mxCell id="u8ekynMKd1rAH-vK32Hy-19" style="edgeStyle=none;rounded=0;orthogonalLoop=1;jettySize=auto;html=1;exitX=0.5;exitY=1;exitDx=0;exitDy=0;entryX=0.5;entryY=0;entryDx=0;entryDy=0;endArrow=classic;endFill=1;strokeWidth=1;" edge="1" parent="1" source="6nNHvLZK3ngZgTr0ydqF-46" target="u8ekynMKd1rAH-vK32Hy-16">
          <mxGeometry relative="1" as="geometry" />
        </mxCell>
        <mxCell id="u8ekynMKd1rAH-vK32Hy-20" style="edgeStyle=none;rounded=0;orthogonalLoop=1;jettySize=auto;html=1;exitX=0.5;exitY=1;exitDx=0;exitDy=0;entryX=0.5;entryY=0;entryDx=0;entryDy=0;endArrow=classic;endFill=1;strokeWidth=1;" edge="1" parent="1" source="6nNHvLZK3ngZgTr0ydqF-46" target="u8ekynMKd1rAH-vK32Hy-17">
          <mxGeometry relative="1" as="geometry" />
        </mxCell>
        <mxCell id="6nNHvLZK3ngZgTr0ydqF-46" value="Jogo" style="whiteSpace=wrap;html=1;align=center;" parent="1" vertex="1">
          <mxGeometry x="520" y="800" width="120" height="80" as="geometry" />
        </mxCell>
        <mxCell id="6nNHvLZK3ngZgTr0ydqF-47" value="Rodada" style="whiteSpace=wrap;html=1;align=center;" parent="1" vertex="1">
          <mxGeometry x="520" y="440" width="120" height="80" as="geometry" />
        </mxCell>
        <mxCell id="6nNHvLZK3ngZgTr0ydqF-50" style="edgeStyle=none;rounded=0;orthogonalLoop=1;jettySize=auto;html=1;exitX=0.5;exitY=1;exitDx=0;exitDy=0;entryX=0.5;entryY=0;entryDx=0;entryDy=0;endArrow=none;endFill=0;strokeWidth=1;" parent="1" source="6nNHvLZK3ngZgTr0ydqF-48" target="6nNHvLZK3ngZgTr0ydqF-47" edge="1">
          <mxGeometry relative="1" as="geometry" />
        </mxCell>
        <mxCell id="6nNHvLZK3ngZgTr0ydqF-52" value="(0,n)" style="edgeLabel;html=1;align=left;verticalAlign=middle;resizable=0;points=[];labelPosition=right;verticalLabelPosition=middle;" parent="6nNHvLZK3ngZgTr0ydqF-50" vertex="1" connectable="0">
          <mxGeometry x="0.6182" y="3" relative="1" as="geometry">
            <mxPoint as="offset" />
          </mxGeometry>
        </mxCell>
        <mxCell id="6nNHvLZK3ngZgTr0ydqF-48" value="" style="shape=rhombus;perimeter=rhombusPerimeter;whiteSpace=wrap;html=1;align=center;" parent="1" vertex="1">
          <mxGeometry x="520" y="270" width="120" height="60" as="geometry" />
        </mxCell>
        <mxCell id="6nNHvLZK3ngZgTr0ydqF-54" style="edgeStyle=none;rounded=0;orthogonalLoop=1;jettySize=auto;html=1;exitX=0.5;exitY=0;exitDx=0;exitDy=0;entryX=0.5;entryY=1;entryDx=0;entryDy=0;endArrow=none;endFill=0;strokeWidth=1;" parent="1" source="6nNHvLZK3ngZgTr0ydqF-53" target="6nNHvLZK3ngZgTr0ydqF-47" edge="1">
          <mxGeometry relative="1" as="geometry" />
        </mxCell>
        <mxCell id="6nNHvLZK3ngZgTr0ydqF-56" value="(1,1)" style="edgeLabel;html=1;align=left;verticalAlign=middle;resizable=0;points=[];labelPosition=right;verticalLabelPosition=middle;" parent="6nNHvLZK3ngZgTr0ydqF-54" vertex="1" connectable="0">
          <mxGeometry x="0.4449" y="1" relative="1" as="geometry">
            <mxPoint x="1" y="-10" as="offset" />
          </mxGeometry>
        </mxCell>
        <mxCell id="6nNHvLZK3ngZgTr0ydqF-55" style="edgeStyle=none;rounded=0;orthogonalLoop=1;jettySize=auto;html=1;exitX=0.5;exitY=1;exitDx=0;exitDy=0;entryX=0.5;entryY=0;entryDx=0;entryDy=0;endArrow=none;endFill=0;strokeWidth=1;" parent="1" source="6nNHvLZK3ngZgTr0ydqF-53" target="6nNHvLZK3ngZgTr0ydqF-46" edge="1">
          <mxGeometry relative="1" as="geometry" />
        </mxCell>
        <mxCell id="6nNHvLZK3ngZgTr0ydqF-57" value="(0,n)" style="edgeLabel;html=1;align=left;verticalAlign=middle;resizable=0;points=[];labelPosition=right;verticalLabelPosition=middle;" parent="6nNHvLZK3ngZgTr0ydqF-55" vertex="1" connectable="0">
          <mxGeometry x="0.6353" y="1" relative="1" as="geometry">
            <mxPoint y="1" as="offset" />
          </mxGeometry>
        </mxCell>
        <mxCell id="6nNHvLZK3ngZgTr0ydqF-53" value="" style="shape=rhombus;perimeter=rhombusPerimeter;whiteSpace=wrap;html=1;align=center;" parent="1" vertex="1">
          <mxGeometry x="520" y="630" width="120" height="60" as="geometry" />
        </mxCell>
        <mxCell id="6nNHvLZK3ngZgTr0ydqF-59" style="edgeStyle=none;rounded=0;orthogonalLoop=1;jettySize=auto;html=1;exitX=1;exitY=0.5;exitDx=0;exitDy=0;entryX=0;entryY=0.5;entryDx=0;entryDy=0;endArrow=none;endFill=0;strokeWidth=1;" parent="1" source="6nNHvLZK3ngZgTr0ydqF-58" target="6nNHvLZK3ngZgTr0ydqF-46" edge="1">
          <mxGeometry relative="1" as="geometry" />
        </mxCell>
        <mxCell id="6nNHvLZK3ngZgTr0ydqF-62" value="(0,n)" style="edgeLabel;html=1;align=center;verticalAlign=bottom;resizable=0;points=[];" parent="6nNHvLZK3ngZgTr0ydqF-59" vertex="1" connectable="0">
          <mxGeometry x="0.5576" relative="1" as="geometry">
            <mxPoint as="offset" />
          </mxGeometry>
        </mxCell>
        <mxCell id="6nNHvLZK3ngZgTr0ydqF-60" style="edgeStyle=none;rounded=0;orthogonalLoop=1;jettySize=auto;html=1;exitX=0;exitY=0.5;exitDx=0;exitDy=0;entryX=1;entryY=0.5;entryDx=0;entryDy=0;endArrow=none;endFill=0;strokeWidth=1;" parent="1" source="6nNHvLZK3ngZgTr0ydqF-58" target="6nNHvLZK3ngZgTr0ydqF-45" edge="1">
          <mxGeometry relative="1" as="geometry" />
        </mxCell>
        <mxCell id="6nNHvLZK3ngZgTr0ydqF-61" value="(2,2)" style="edgeLabel;html=1;align=center;verticalAlign=bottom;resizable=0;points=[];" parent="6nNHvLZK3ngZgTr0ydqF-60" vertex="1" connectable="0">
          <mxGeometry x="0.6188" y="1" relative="1" as="geometry">
            <mxPoint as="offset" />
          </mxGeometry>
        </mxCell>
        <mxCell id="6nNHvLZK3ngZgTr0ydqF-58" value="Disputa" style="shape=rhombus;perimeter=rhombusPerimeter;whiteSpace=wrap;html=1;align=center;" parent="1" vertex="1">
          <mxGeometry x="300" y="810" width="120" height="60" as="geometry" />
        </mxCell>
        <mxCell id="u8ekynMKd1rAH-vK32Hy-4" style="edgeStyle=none;rounded=0;orthogonalLoop=1;jettySize=auto;html=1;exitX=0.5;exitY=1;exitDx=0;exitDy=0;entryX=0.5;entryY=0;entryDx=0;entryDy=0;endArrow=none;endFill=0;strokeWidth=1;" edge="1" parent="1" source="u8ekynMKd1rAH-vK32Hy-1" target="6nNHvLZK3ngZgTr0ydqF-48">
          <mxGeometry relative="1" as="geometry" />
        </mxCell>
        <mxCell id="u8ekynMKd1rAH-vK32Hy-5" value="(1,1)" style="edgeLabel;html=1;align=left;verticalAlign=middle;resizable=0;points=[];labelPosition=right;verticalLabelPosition=middle;" vertex="1" connectable="0" parent="u8ekynMKd1rAH-vK32Hy-4">
          <mxGeometry x="-0.6845" y="1" relative="1" as="geometry">
            <mxPoint as="offset" />
          </mxGeometry>
        </mxCell>
        <mxCell id="u8ekynMKd1rAH-vK32Hy-11" style="edgeStyle=none;rounded=0;orthogonalLoop=1;jettySize=auto;html=1;exitX=0;exitY=0.5;exitDx=0;exitDy=0;entryX=1;entryY=0.5;entryDx=0;entryDy=0;endArrow=none;endFill=0;strokeWidth=3;shape=link;" edge="1" parent="1" source="u8ekynMKd1rAH-vK32Hy-1" target="u8ekynMKd1rAH-vK32Hy-8">
          <mxGeometry relative="1" as="geometry" />
        </mxCell>
        <mxCell id="u8ekynMKd1rAH-vK32Hy-12" value="(0,n)" style="edgeLabel;html=1;align=center;verticalAlign=bottom;resizable=0;points=[];" vertex="1" connectable="0" parent="u8ekynMKd1rAH-vK32Hy-11">
          <mxGeometry x="-0.7647" y="-1" relative="1" as="geometry">
            <mxPoint as="offset" />
          </mxGeometry>
        </mxCell>
        <mxCell id="u8ekynMKd1rAH-vK32Hy-1" value="Edição" style="shape=ext;margin=3;double=1;whiteSpace=wrap;html=1;align=center;gradientColor=none;" vertex="1" parent="1">
          <mxGeometry x="520" y="80" width="120" height="80" as="geometry" />
        </mxCell>
        <mxCell id="u8ekynMKd1rAH-vK32Hy-13" style="edgeStyle=none;rounded=0;orthogonalLoop=1;jettySize=auto;html=1;exitX=0;exitY=0.5;exitDx=0;exitDy=0;entryX=1;entryY=0.5;entryDx=0;entryDy=0;endArrow=none;endFill=0;strokeWidth=1;" edge="1" parent="1" source="u8ekynMKd1rAH-vK32Hy-8" target="6nNHvLZK3ngZgTr0ydqF-1">
          <mxGeometry relative="1" as="geometry" />
        </mxCell>
        <mxCell id="u8ekynMKd1rAH-vK32Hy-14" value="(1,1)" style="edgeLabel;html=1;align=center;verticalAlign=bottom;resizable=0;points=[];" vertex="1" connectable="0" parent="u8ekynMKd1rAH-vK32Hy-13">
          <mxGeometry x="0.749" y="-1" relative="1" as="geometry">
            <mxPoint x="-1" as="offset" />
          </mxGeometry>
        </mxCell>
        <mxCell id="u8ekynMKd1rAH-vK32Hy-8" value="" style="shape=rhombus;double=1;perimeter=rhombusPerimeter;whiteSpace=wrap;html=1;align=center;gradientColor=none;" vertex="1" parent="1">
          <mxGeometry x="250" y="90" width="120" height="60" as="geometry" />
        </mxCell>
        <mxCell id="u8ekynMKd1rAH-vK32Hy-15" value="" style="shape=rhombus;double=1;perimeter=rhombusPerimeter;whiteSpace=wrap;html=1;align=center;gradientColor=none;" vertex="1" parent="1">
          <mxGeometry x="800" y="90" width="120" height="60" as="geometry" />
        </mxCell>
        <mxCell id="u8ekynMKd1rAH-vK32Hy-16" value="MD3" style="whiteSpace=wrap;html=1;align=center;" vertex="1" parent="1">
          <mxGeometry x="460" y="920" width="100" height="40" as="geometry" />
        </mxCell>
        <mxCell id="u8ekynMKd1rAH-vK32Hy-17" value="MD5" style="whiteSpace=wrap;html=1;align=center;" vertex="1" parent="1">
          <mxGeometry x="600" y="920" width="100" height="40" as="geometry" />
        </mxCell>
        <mxCell id="u8ekynMKd1rAH-vK32Hy-21" value="Nome" style="ellipse;whiteSpace=wrap;html=1;align=center;fontStyle=4;gradientColor=none;" vertex="1" parent="1">
          <mxGeometry x="-100" y="780" width="100" height="40" as="geometry" />
        </mxCell>
        <mxCell id="u8ekynMKd1rAH-vK32Hy-22" value="Nacionalidade" style="ellipse;whiteSpace=wrap;html=1;align=center;gradientColor=none;" vertex="1" parent="1">
          <mxGeometry x="-100" y="860" width="100" height="40" as="geometry" />
        </mxCell>
      </root>
    </mxGraphModel>
  </diagram>
</mxfile>
